<?xml version="1.0" standalone="no"?>
<!DOCTYPE svg PUBLIC "-//W3C//DTD SVG 1.1//EN" "http://www.w3.org/Graphics/SVG/1.1/DTD/svg11.dtd" >
<svg xmlns="http://www.w3.org/2000/svg">
<metadata></metadata>
<defs>
<font id="dharma_gothic_e_regularRg" horiz-adv-x="675" >
<font-face units-per-em="2048" ascent="1638" descent="-410" />
<missing-glyph horiz-adv-x="282" />
<glyph unicode="&#xfb01;" horiz-adv-x="694" d="M12 993v137h80v68q0 137 44 186.5t169 49.5h68v-129h-33q-52 0 -69 -19.5t-17 -87.5v-68h119v-137h-117v-993h-164v993h-80zM457 0v1130h164v-1130h-164zM457 1268v166h164v-166h-164z" />
<glyph unicode="&#xfb02;" horiz-adv-x="694" d="M12 993v137h80v68q0 137 44 186.5t169 49.5h68v-129h-33q-52 0 -69 -19.5t-17 -87.5v-68h119v-137h-117v-993h-164v993h-80zM457 0v1434h164v-1434h-164z" />
<glyph horiz-adv-x="0" />
<glyph horiz-adv-x="682" />
<glyph unicode=" "  horiz-adv-x="282" />
<glyph unicode="&#x09;" horiz-adv-x="282" />
<glyph unicode="&#xa0;" horiz-adv-x="282" />
<glyph unicode="!" horiz-adv-x="327" d="M70 0v229h188v-229h-188zM74 983v451h180v-451l-33 -657h-115z" />
<glyph unicode="&#x22;" horiz-adv-x="518" d="M43 1288v146h170v-146l-25 -282h-122zM307 1288v146h170v-146l-24 -282h-123z" />
<glyph unicode="#" d="M12 297l8 152h70l41 585h-72l13 152h71l17 248h145l-16 -248h157l17 248h145l-16 -248h72l-13 -152h-71l-41 -585h73l-10 -152h-74l-20 -297h-146l21 297h-158l-20 -297h-146l21 297h-68zM236 449h157l43 585h-160z" />
<glyph unicode="$" d="M72 287v250h157v-220q0 -70 14.5 -93t71.5 -23h35q57 0 72.5 23.5t15.5 92.5v86q0 71 -29 119t-133 135q-129 108 -166.5 178t-37.5 181v131q0 137 40.5 189.5t155.5 56.5v92h138v-92q117 -4 157.5 -56t40.5 -190v-223h-158v192q0 70 -14.5 93.5t-71.5 23.5h-34 q-57 0 -72.5 -24t-15.5 -93v-86q0 -73 28 -120t131 -134q131 -110 169 -179t38 -179v-131q0 -139 -40.5 -191t-157.5 -55v-92h-138v92q-115 3 -155.5 55t-40.5 191z" />
<glyph unicode="%" horiz-adv-x="1134" d="M51 715v547q0 105 35.5 143.5t132.5 38.5h74q94 0 130 -38.5t36 -143.5v-547q0 -105 -36 -144t-130 -39h-74q-97 0 -132.5 38.5t-35.5 144.5zM178 741q0 -55 11 -72.5t55 -17.5h22q44 0 55 17.5t11 72.5v494q0 55 -11 72.5t-55 17.5h-22q-44 0 -55 -17.5t-11 -72.5v-494z M324 0l430 1434h57l-428 -1434h-59zM676 172v547q0 105 35.5 143.5t132.5 38.5h74q94 0 129.5 -38.5t35.5 -143.5v-547q0 -105 -35.5 -143.5t-129.5 -38.5h-74q-97 0 -132.5 38.5t-35.5 143.5zM803 199q0 -55 11 -72.5t54 -17.5h23q43 0 54 17.5t11 72.5v493q0 55 -11 72.5 t-54 17.5h-23q-43 0 -54 -17.5t-11 -72.5v-493z" />
<glyph unicode="&#x26;" horiz-adv-x="731" d="M57 199v307q0 121 28 178t101 74q-73 20 -101 77.5t-28 178.5v153q0 156 49 211.5t191 55.5h188v-168h-155q-61 0 -76.5 -25t-15.5 -102v-170q0 -76 15.5 -101.5t76.5 -25.5h119v188h163v-188h109v-166h-109v-418q0 -165 33 -258h-166q-19 44 -22 143q-14 -76 -57 -114.5 t-126 -38.5h-47q-98 0 -134 46t-36 163zM238 272q0 -69 13.5 -92.5t65.5 -23.5h35q97 0 97 145v375h-119q-61 0 -76.5 -24.5t-15.5 -100.5v-279z" />
<glyph unicode="'" horiz-adv-x="337" d="M84 1288v146h170v-146l-25 -282h-123z" />
<glyph unicode="(" horiz-adv-x="421" d="M70 94v1123q0 139 44 188t169 49h96v-139h-66q-53 0 -67.5 -23t-14.5 -92v-1091q0 -67 14.5 -90t67.5 -23h66v-139h-96q-125 0 -169 49t-44 188z" />
<glyph unicode=")" horiz-adv-x="421" d="M43 -4h66q53 0 67 23t14 90v1091q0 69 -14 92t-67 23h-66v139h96q125 0 169 -49t44 -188v-1123q0 -139 -44 -188t-169 -49h-96v139z" />
<glyph unicode="*" horiz-adv-x="628" d="M12 1034l230 92l-230 93l72 122l190 -153l-32 246h143l-37 -246l195 153l73 -122l-233 -93l233 -92l-73 -125l-193 152l35 -244h-143l32 244l-190 -152z" />
<glyph unicode="+" d="M66 643v148h200v223h142v-223h202v-148h-202v-225h-142v225h-200z" />
<glyph unicode="," horiz-adv-x="337" d="M74 0v246h188v-246l-160 -174l-14 10l105 164h-119z" />
<glyph unicode="-" horiz-adv-x="438" d="M41 487v125h356v-125h-356z" />
<glyph unicode="." horiz-adv-x="337" d="M74 0v246h188v-246h-188z" />
<glyph unicode="/" d="M16 -41l482 1516h161l-483 -1516h-160z" />
<glyph unicode="0" d="M66 236v962q0 143 45.5 194.5t175.5 51.5h102q130 0 175.5 -51.5t45.5 -194.5v-962q0 -143 -45.5 -194.5t-175.5 -51.5h-102q-130 0 -175.5 51.5t-45.5 194.5zM233 264q0 -69 15 -93t71 -24h37q56 0 71 24t15 93v905q0 69 -15 93t-71 24h-37q-56 0 -71 -24t-15 -93v-905z " />
<glyph unicode="1" horiz-adv-x="331" d="M86 0v1348q29 0 58.5 28.5t29.5 57.5h80v-1434h-168z" />
<glyph unicode="2" horiz-adv-x="653" d="M53 0v211q0 107 19.5 181.5t61.5 143.5t134 185q103 134 136.5 212.5t33.5 205.5v30q0 69 -15 93t-71 24h-37q-56 0 -71 -24t-15 -93v-245h-157v274q0 144 45 195t176 51h92q130 0 175.5 -51.5t45.5 -194.5v-70q0 -154 -40.5 -248t-172.5 -262q-105 -136 -138.5 -213.5 t-33.5 -205.5v-41h387v-158h-555z" />
<glyph unicode="3" horiz-adv-x="651" d="M57 236v292h158v-264q0 -69 15 -93t71 -24h37q57 0 71.5 23.5t14.5 93.5v295q0 70 -14.5 93.5t-71.5 23.5h-195v158h195q57 0 71.5 23t14.5 93v219q0 70 -14.5 93.5t-71.5 23.5h-37q-57 0 -71.5 -23.5t-14.5 -93.5v-190h-158v219q0 144 45.5 195t176.5 51h92 q130 0 175.5 -51.5t45.5 -194.5v-209q0 -109 -24.5 -163t-86.5 -72q62 -20 86.5 -73t24.5 -161v-284q0 -143 -45.5 -194.5t-175.5 -51.5h-92q-131 0 -176.5 51t-45.5 195z" />
<glyph unicode="4" horiz-adv-x="634" d="M12 258v131l328 1043h180v-1031h111v-143h-111v-258h-166v258h-342zM158 401h196v310q0 197 13 463q-56 -258 -117 -463z" />
<glyph unicode="5" horiz-adv-x="655" d="M66 236v292h157v-264q0 -69 15 -93t71 -24h37q56 0 71 24t15 93v553q0 67 -14 91t-66 24h-33q-96 0 -96 -144v-133h-157v779h507v-158h-350v-305q36 114 170 114h43q95 0 129.5 -44t34.5 -160v-645q0 -143 -46.5 -194.5t-176.5 -51.5h-90q-130 0 -175.5 51.5t-45.5 194.5 z" />
<glyph unicode="6" horiz-adv-x="667" d="M66 236v962q0 143 45.5 194.5t175.5 51.5h90q131 0 177 -51.5t46 -194.5v-158h-158v129q0 69 -15 93t-71 24h-37q-56 0 -71 -24t-15 -93v-317q37 115 168 115h45q96 0 130 -44.5t34 -160.5v-526q0 -143 -45.5 -194.5t-175.5 -51.5h-102q-131 0 -176 51t-45 195zM233 264 q0 -69 15 -93t71 -24h37q56 0 71 24t15 93v434q0 67 -14 90t-66 23h-32q-52 0 -74.5 -35.5t-22.5 -105.5v-406z" />
<glyph unicode="7" horiz-adv-x="571" d="M10 1276v158h551v-142l-274 -1292h-187l306 1276h-396z" />
<glyph unicode="8" horiz-adv-x="659" d="M57 236v296q0 108 24.5 161t86.5 73q-63 18 -87 71t-24 162v199q0 143 46.5 194.5t177.5 51.5h98q131 0 177 -51.5t46 -194.5v-199q0 -108 -24 -161.5t-86 -71.5q62 -20 86 -73t24 -161v-296q0 -143 -46 -194.5t-177 -51.5h-98q-131 0 -177.5 51.5t-46.5 194.5zM225 264 q0 -69 15 -93t71 -24h37q56 0 71 24t15 93v307q0 69 -15 93t-71 24h-37q-56 0 -71 -24t-15 -93v-307zM225 963q0 -69 15 -93t71 -24h37q56 0 71 24t15 93v206q0 69 -15 93t-71 24h-37q-56 0 -71 -24t-15 -93v-206z" />
<glyph unicode="9" horiz-adv-x="667" d="M57 692v506q0 143 46 194.5t176 51.5h102q131 0 176 -51t45 -195v-962q0 -143 -45.5 -194.5t-175.5 -51.5h-90q-131 0 -177 51.5t-46 194.5v178h157v-150q0 -69 15 -93t71 -24h37q56 0 71 24t15 93v338q-20 -57 -59.5 -86t-108.5 -29h-45q-96 0 -130 44.5t-34 160.5z M225 756q0 -67 14 -90t66 -23h33q52 0 74 35t22 106v385q0 69 -15 93t-71 24h-37q-56 0 -71 -24t-15 -93v-413z" />
<glyph unicode=":" horiz-adv-x="337" d="M74 0v246h188v-246h-188zM74 799v245h188v-245h-188z" />
<glyph unicode=";" horiz-adv-x="337" d="M74 0v246h188v-246l-160 -174l-14 10l105 164h-119zM74 799v245h188v-245h-188z" />
<glyph unicode="&#x3c;" d="M66 717l344 282h200l-348 -282l348 -285h-200z" />
<glyph unicode="=" d="M66 473v148h544v-148h-544zM66 813v148h544v-148h-544z" />
<glyph unicode="&#x3e;" d="M66 432l348 285l-348 282h200l344 -282l-344 -285h-200z" />
<glyph unicode="?" horiz-adv-x="622" d="M45 924v274q0 144 45 195t176 51h90q132 0 178 -51.5t46 -196.5v-82q0 -90 -17 -160.5t-42.5 -112t-55.5 -84t-55.5 -77.5t-42.5 -93t-17 -130v-68h-145v55q0 106 21.5 183t51.5 124t60.5 92.5t52 115.5t21.5 165v45q0 69 -15.5 93t-72.5 24h-35q-57 0 -71.5 -23.5 t-14.5 -93.5v-245h-158zM184 0v281h185v-281h-185z" />
<glyph unicode="@" horiz-adv-x="1058" d="M63 397v396q0 300 123 436.5t359 136.5h8q233 0 336.5 -135.5t103.5 -409.5v-223q0 -112 -15.5 -195.5t-41 -133.5t-62.5 -80.5t-73.5 -41t-81.5 -10.5h-12q-99 0 -123 74q-27 -74 -125 -74h-33q-119 0 -104 131l55 658q6 66 33.5 95.5t83.5 29.5h30q88 0 105 -68l24 57 h84l-67 -768q-2 -24 10.5 -40.5t38.5 -16.5h8q166 0 166 401v205q0 235 -77 340t-263 105h-8q-74 0 -129.5 -13.5t-101.5 -46t-75 -86t-45 -135t-16 -192.5v-408q0 -109 23.5 -190t61.5 -130t96 -78t118 -39.5t137 -10.5q130 0 195 24v-98q-84 -23 -197 -23 q-96 0 -176.5 17.5t-150.5 58.5t-118.5 104t-76 158.5t-27.5 218.5zM436 266q-3 -47 35 -47h12q34 0 52 14t22 54l53 620q1 30 -13 46t-40 16h-20q-24 0 -33.5 -13t-11.5 -36z" />
<glyph unicode="A" horiz-adv-x="681" d="M23 0l194 1434h248l192 -1434h-180l-31 219h-231l-31 -219h-161zM238 387h186l-23 174q-42 329 -71 723q-30 -412 -70 -723z" />
<glyph unicode="B" horiz-adv-x="729" d="M78 0v1434h348q142 0 191 -55.5t49 -211.5v-163q0 -116 -25 -173t-90 -77q65 -21 90 -77t25 -171v-240q0 -156 -49 -211t-191 -55h-348zM258 168h135q61 0 76.5 25t15.5 102v248q0 77 -16 102t-76 25h-135v-502zM258 838h135q60 0 76 25t16 102v174q0 77 -15.5 102 t-76.5 25h-135v-428z" />
<glyph unicode="C" horiz-adv-x="712" d="M70 256v922q0 156 49 211t190 55h99q142 0 190.5 -55t48.5 -211v-269h-170v240q0 77 -16 102t-76 25h-43q-60 0 -76 -25t-16 -102v-864q0 -77 16 -102t76 -25h43q60 0 76 25t16 102v301h170v-330q0 -156 -48.5 -211t-190.5 -55h-99q-141 0 -190 55t-49 211z" />
<glyph unicode="D" horiz-adv-x="739" d="M82 0v1434h346q142 0 192 -55.5t50 -211.5v-901q0 -156 -50 -211t-192 -55h-346zM262 168h135q60 0 76 25t16 102v844q0 77 -16 102t-76 25h-135v-1098z" />
<glyph unicode="E" horiz-adv-x="573" d="M82 0v1434h448v-168h-268v-432h223v-168h-223v-498h268v-168h-448z" />
<glyph unicode="F" horiz-adv-x="532" d="M82 0v1434h438v-168h-258v-453h213v-168h-213v-645h-180z" />
<glyph unicode="G" horiz-adv-x="714" d="M70 256v922q0 156 49 211t190 55h99q142 0 190.5 -55t48.5 -211v-244h-170v215q0 77 -16 102t-76 25h-43q-60 0 -76 -25t-16 -102v-864q0 -77 16 -102t76 -25h43q60 0 76 25t16 102v342h-112v168h282v-539q0 -156 -48.5 -211t-190.5 -55h-99q-141 0 -190 55t-49 211z" />
<glyph unicode="H" horiz-adv-x="751" d="M82 0v1434h180v-600h227v600h181v-1434h-181v666h-227v-666h-180z" />
<glyph unicode="I" horiz-adv-x="344" d="M82 0v1434h180v-1434h-180z" />
<glyph unicode="J" horiz-adv-x="684" d="M29 256v330h170v-301q0 -77 16 -102t76 -25h43q60 0 76 25t16 102v1149h180v-1178q0 -156 -48.5 -211t-190.5 -55h-99q-142 0 -190.5 55t-48.5 211z" />
<glyph unicode="K" horiz-adv-x="731" d="M82 0v1434h180v-641q14 41 39 100l236 541h178l-303 -674l313 -760h-188l-236 573q-23 57 -39 115v-688h-180z" />
<glyph unicode="L" horiz-adv-x="509" d="M82 0v1434h180v-1266h236v-168h-416z" />
<glyph unicode="M" horiz-adv-x="968" d="M80 0v1434h276l111 -811q5 -38 9.5 -114.5t6.5 -98.5q7 134 17 213l108 811h281v-1434h-176v866q0 94 4 258q-19 -161 -33 -258l-133 -866h-150l-133 866q-21 128 -37 271q5 -215 5 -271v-866h-156z" />
<glyph unicode="N" horiz-adv-x="751" d="M80 0v1434h227l170 -766q28 -128 47 -258q-1 25 -4.5 116t-3.5 144v764h158v-1434h-205l-193 829q-23 103 -45 258q5 -210 5 -262v-825h-156z" />
<glyph unicode="O" horiz-adv-x="727" d="M70 256v922q0 156 49 211t190 55h109q141 0 190 -55t49 -211v-922q0 -156 -49 -211t-190 -55h-109q-141 0 -190 55t-49 211zM250 285q0 -77 16 -102t76 -25h43q60 0 76 25t16 102v864q0 77 -16 102t-76 25h-43q-60 0 -76 -25t-16 -102v-864z" />
<glyph unicode="P" horiz-adv-x="692" d="M82 0v1434h336q142 0 190.5 -55.5t48.5 -211.5v-360q0 -156 -48.5 -211t-190.5 -55h-156v-541h-180zM262 709h125q59 0 74.5 25t15.5 102v303q0 77 -15.5 102t-74.5 25h-125v-557z" />
<glyph unicode="Q" horiz-adv-x="727" d="M70 256v922q0 156 49 211t190 55h109q141 0 190 -55t49 -211v-922q0 -141 -40 -199t-146 -65v-49q0 -61 18 -84t66 -23h43v-96h-80q-60 0 -94.5 6.5t-63 29.5t-40 67.5t-11.5 119.5v27q-141 0 -190 55t-49 211zM250 285q0 -77 16 -102t76 -25h43q60 0 76 25t16 102v864 q0 77 -16 102t-76 25h-43q-60 0 -76 -25t-16 -102v-864z" />
<glyph unicode="R" horiz-adv-x="735" d="M78 0v1434h348q142 0 191 -55.5t49 -211.5v-194q0 -115 -25 -171.5t-90 -76.5q65 -21 90 -78.5t25 -173.5v-221q0 -158 30 -252h-188q-23 54 -23 223v275q0 79 -21 111t-85 32h-121v-641h-180zM258 809h135q60 0 76 25t16 102v203q0 77 -15.5 102t-76.5 25h-135v-457z " />
<glyph unicode="S" d="M57 256v264h168v-235q0 -77 15.5 -102t76.5 -25h31q60 0 76 25t16 102v100q0 94 -31.5 145.5t-142.5 151.5q-129 116 -169 190t-40 211v95q0 156 49 211t191 55h84q142 0 191 -55t49 -211v-224h-170v195q0 77 -16 102t-77 25h-30q-60 0 -76 -24.5t-16 -98.5v-68 q0 -94 31.5 -146.5t142.5 -152.5q90 -81 130.5 -131t60.5 -111.5t20 -156.5v-131q0 -156 -49.5 -211t-190.5 -55h-86q-140 0 -189 55t-49 211z" />
<glyph unicode="T" horiz-adv-x="509" d="M8 1266v168h494v-168h-156v-1266h-180v1266h-158z" />
<glyph unicode="U" horiz-adv-x="729" d="M78 256v1178h180v-1149q0 -77 15.5 -102t76.5 -25h43q60 0 76 25t16 102v1149h168v-1178q0 -157 -48 -211.5t-189 -54.5h-99q-142 0 -190.5 55t-48.5 211z" />
<glyph unicode="V" horiz-adv-x="673" d="M25 1434h182l84 -629q26 -195 57 -559q25 299 60 559l81 629h162l-192 -1434h-240z" />
<glyph unicode="W" horiz-adv-x="1038" d="M25 1434h182l76 -680q39 -348 43 -463q6 165 39 463l73 680h185l73 -680q33 -298 39 -463q4 115 43 463l76 680h162l-174 -1434h-221l-72 649q-16 134 -23 379q-12 -255 -24 -379l-70 -649h-233z" />
<glyph unicode="X" horiz-adv-x="681" d="M23 0l186 754l-176 680h180l66 -260q50 -202 71 -320q25 143 70 320l65 260h160l-174 -680l188 -754h-184l-76 317q-47 197 -69 330q-25 -156 -68 -330l-78 -317h-161z" />
<glyph unicode="Y" horiz-adv-x="649" d="M10 1434h183l75 -338q53 -232 68 -394q20 189 67 394l76 338h160l-223 -951v-483h-180v483z" />
<glyph unicode="Z" horiz-adv-x="569" d="M35 0v156l309 1110h-293v168h481v-156l-309 -1110h309v-168h-497z" />
<glyph unicode="[" horiz-adv-x="432" d="M82 -143v1597h309v-139h-147v-1319h147v-139h-309z" />
<glyph unicode="\" d="M16 1475h162l481 -1516h-159z" />
<glyph unicode="]" horiz-adv-x="432" d="M41 -4h147v1319h-147v139h309v-1597h-309v139z" />
<glyph unicode="^" d="M66 893l213 541h116l215 -541h-139l-133 346l-133 -346h-139z" />
<glyph unicode="_" horiz-adv-x="1024" d="M0 -29h1024v-106h-1024v106z" />
<glyph unicode="`" horiz-adv-x="337" d="M25 1423h149l102 -235h-102z" />
<glyph unicode="a" horiz-adv-x="655" d="M57 184v185q0 115 35.5 174.5t143.5 103.5q50 21 73.5 31t49.5 25.5t34.5 26t17.5 31.5t10 42t1 57v19q0 67 -14.5 89.5t-67.5 22.5h-35q-52 0 -67 -23t-15 -89v-129h-151v153q0 139 43 188.5t168 49.5h90q125 0 169 -49.5t44 -188.5v-713q0 -122 14 -190h-154 q-15 35 -18 115q-32 -125 -168 -125h-41q-93 0 -127.5 42.5t-34.5 151.5zM221 248q0 -64 14 -86.5t64 -22.5h31q49 0 70.5 34t21.5 101v314q-49 -27 -88 -43q-72 -31 -92.5 -66t-20.5 -114v-117z" />
<glyph unicode="b" horiz-adv-x="665" d="M74 0v1434h164v-398q37 105 161 105h41q93 0 127.5 -43t34.5 -152v-762q0 -109 -34.5 -151.5t-127.5 -42.5h-41q-138 0 -170 125l-16 -115h-139zM238 274q0 -67 21.5 -101t70.5 -34h30q50 0 64 22.5t14 86.5v635q0 64 -14 86t-64 22h-30q-49 0 -70.5 -34t-21.5 -101v-582 z" />
<glyph unicode="c" horiz-adv-x="643" d="M63 227v676q0 139 44.5 188.5t171.5 49.5h90q125 0 169 -49.5t44 -188.5v-211h-154v187q0 67 -14.5 89.5t-67.5 22.5h-37q-53 0 -67.5 -22.5t-14.5 -89.5v-627q0 -67 14.5 -90t67.5 -23h37q53 0 67.5 23t14.5 90v207h154v-232q0 -139 -44 -188t-169 -49h-90 q-127 0 -171.5 49t-44.5 188z" />
<glyph unicode="d" horiz-adv-x="665" d="M66 184v762q0 109 33.5 152t125.5 43h41q122 0 162 -105v398h164v-1244q0 -112 16 -190h-155q-14 32 -17 121q-29 -131 -170 -131h-41q-92 0 -125.5 42.5t-33.5 151.5zM229 248q0 -65 13 -87t63 -22h33q49 0 69.5 33.5t20.5 101.5v582q0 68 -20.5 101.5t-69.5 33.5h-33 q-50 0 -63 -21.5t-13 -86.5v-635z" />
<glyph unicode="e" horiz-adv-x="645" d="M63 227v676q0 139 44.5 188.5t171.5 49.5h90q125 0 169 -49.5t44 -188.5v-387h-355v-264q0 -67 14.5 -90t67.5 -23h37q53 0 67.5 23t14.5 90v133h154v-158q0 -139 -44 -188t-169 -49h-90q-127 0 -171.5 49t-44.5 188zM227 659h201v220q0 67 -14.5 89.5t-67.5 22.5h-37 q-53 0 -67.5 -22.5t-14.5 -89.5v-220z" />
<glyph unicode="f" horiz-adv-x="382" d="M12 993v137h80v68q0 137 44 186.5t169 49.5h68v-129h-33q-52 0 -69 -19.5t-17 -87.5v-68h119v-137h-117v-993h-164v993h-80z" />
<glyph unicode="g" horiz-adv-x="647" d="M57 -76q0 91 72 119q-51 38 -51 131v16q0 94 63 125q-45 23 -63.5 73.5t-18.5 143.5v371q0 139 44 188.5t169 49.5h76q78 0 122 -18t65 -60q11 78 75 78h27v-146h-27q-35 0 -35 -53v-410q0 -138 -44 -187.5t-169 -49.5h-98q-40 0 -57 -16.5t-17 -55.5v-4q0 -35 20 -48 t64 -13h127q58 0 96 -6.5t72 -25.5t50 -58.5t16 -100.5v-33q0 -118 -52.5 -161t-179.5 -43h-176q-170 0 -170 157v37zM178 -70v-12q0 -51 21 -66.5t71 -15.5h129q57 0 79 16t22 70v12q0 45 -22.5 59.5t-78.5 14.5h-135q-45 0 -65.5 -18t-20.5 -60zM217 543q0 -68 14.5 -91.5 t67.5 -23.5h37q53 0 67.5 23.5t14.5 91.5v350q0 68 -14.5 91.5t-67.5 23.5h-37q-53 0 -67.5 -23.5t-14.5 -91.5v-350z" />
<glyph unicode="h" horiz-adv-x="671" d="M74 0v1434h164v-398q37 105 161 105h41q93 0 127.5 -43t34.5 -152v-946h-164v883q0 64 -14 86t-64 22h-30q-49 0 -70.5 -34t-21.5 -101v-856h-164z" />
<glyph unicode="i" horiz-adv-x="311" d="M74 0v1130h164v-1130h-164zM74 1268v166h164v-166h-164z" />
<glyph unicode="j" horiz-adv-x="311" d="M-20 -135h12q51 0 66.5 18t15.5 86v1161h164v-1153q0 -139 -42.5 -188t-168.5 -49h-47v125zM74 1268v166h164v-166h-164z" />
<glyph unicode="k" horiz-adv-x="649" d="M74 0v1434h164v-803q10 23 30.5 69t30.5 70l166 360h160l-256 -534l268 -596h-170l-178 399q-36 79 -51 133v-532h-164z" />
<glyph unicode="l" horiz-adv-x="311" d="M74 0v1434h164v-1434h-164z" />
<glyph unicode="m" horiz-adv-x="1013" d="M74 0v1130h153v-129q29 140 172 140h31q72 0 107.5 -26.5t46.5 -86.5q37 113 166 113h32q92 0 126 -43t34 -152v-946h-162v883q0 64 -14 86t-64 22h-20q-49 0 -70.5 -34t-21.5 -101v-856h-164v883q0 65 -13 86.5t-63 21.5h-20q-49 0 -70.5 -34t-21.5 -101v-856h-164z" />
<glyph unicode="n" horiz-adv-x="671" d="M74 0v1130h153v-129q29 140 172 140h41q93 0 127.5 -43t34.5 -152v-946h-164v883q0 64 -14 86t-64 22h-30q-49 0 -70.5 -34t-21.5 -101v-856h-164z" />
<glyph unicode="o" horiz-adv-x="655" d="M63 227v676q0 139 44.5 188.5t171.5 49.5h100q125 0 169 -49.5t44 -188.5v-676q0 -139 -44 -188t-169 -49h-100q-127 0 -171.5 49t-44.5 188zM227 252q0 -67 14.5 -90t67.5 -23h37q53 0 67.5 23t14.5 90v627q0 67 -14.5 89.5t-67.5 22.5h-37q-53 0 -67.5 -22.5 t-14.5 -89.5v-627z" />
<glyph unicode="p" horiz-adv-x="665" d="M74 -260v1390h153v-129q29 140 172 140h41q93 0 127.5 -43t34.5 -152v-762q0 -109 -34.5 -151.5t-127.5 -42.5h-41q-125 0 -161 102v-352h-164zM238 274q0 -67 21.5 -101t70.5 -34h30q50 0 64 22.5t14 86.5v635q0 64 -14 86t-64 22h-30q-49 0 -70.5 -34t-21.5 -101v-582z " />
<glyph unicode="q" horiz-adv-x="665" d="M66 184v762q0 109 33.5 152t125.5 43h41q136 0 168 -127l19 116h139v-1390h-164v352q-19 -51 -57.5 -76.5t-104.5 -25.5h-41q-92 0 -125.5 42.5t-33.5 151.5zM229 248q0 -65 13 -87t63 -22h33q49 0 69.5 33.5t20.5 101.5v582q0 68 -20.5 101.5t-69.5 33.5h-33 q-50 0 -63 -21.5t-13 -86.5v-635z" />
<glyph unicode="r" horiz-adv-x="403" d="M74 0v1130h153v-151q29 162 150 162h14v-174h-16q-73 0 -105 -49.5t-32 -163.5v-754h-164z" />
<glyph unicode="s" horiz-adv-x="630" d="M57 227v174h154v-149q0 -68 14 -90.5t68 -22.5h35q54 0 68 22.5t14 90.5v51q0 70 -29 108t-131 109q-117 81 -155 144.5t-38 173.5v65q0 139 43.5 188.5t169.5 49.5h90q125 0 169 -49.5t44 -188.5v-153h-153v129q0 67 -14.5 89.5t-67.5 22.5h-37q-52 0 -66 -22.5 t-14 -89.5v-31q0 -70 29 -108t131 -109q117 -81 154.5 -144.5t37.5 -173.5v-86q0 -139 -44 -188t-169 -49h-90q-127 0 -170 49t-43 188z" />
<glyph unicode="t" horiz-adv-x="374" d="M12 993v137h80v246h164v-246h109v-137h-109v-735q0 -166 35 -258h-174q-25 59 -25 229v764h-80z" />
<glyph unicode="u" horiz-adv-x="671" d="M72 184v946h161v-882q0 -64 14 -86.5t64 -22.5h31q49 0 70.5 34t21.5 101v856h164v-940q0 -122 16 -190h-155q-14 32 -17 121q-29 -131 -170 -131h-41q-92 0 -125.5 42.5t-33.5 151.5z" />
<glyph unicode="v" horiz-adv-x="606" d="M12 1130h168l70 -428q50 -302 61 -526q13 202 66 526l69 428h148l-186 -1130h-211z" />
<glyph unicode="w" horiz-adv-x="956" d="M12 1130h168l56 -405q34 -244 51 -539q17 243 59 537l60 407h167l60 -407q41 -287 55 -537q25 353 51 539l56 405h147l-154 -1130h-219l-47 379q-39 335 -43 395q-6 -107 -39 -395l-47 -379h-225z" />
<glyph unicode="x" horiz-adv-x="595" d="M16 0l160 592l-153 538h167l19 -65q84 -298 100 -395q21 124 97 395l18 65h149l-155 -538l164 -592h-170l-27 104q-86 324 -98 408q-21 -133 -94 -408l-27 -104h-150z" />
<glyph unicode="y" horiz-adv-x="606" d="M12 1130h168l70 -428q48 -288 61 -526q18 247 64 526l71 428h148l-207 -1230q-12 -79 -57.5 -119.5t-132.5 -40.5h-150v125h84q65 0 68 59l4 64z" />
<glyph unicode="z" horiz-adv-x="538" d="M37 0v125l291 868h-269v137h445v-124l-291 -869h291v-137h-467z" />
<glyph unicode="{" horiz-adv-x="462" d="M12 586v137h25q48 0 64 20.5t16 85.5v388q0 139 43 188t170 49h94v-139h-66q-51 0 -65 -23t-14 -92v-319q0 -106 -24.5 -158t-86.5 -70q62 -17 86.5 -68.5t24.5 -156.5v-319q0 -67 14 -90t65 -23h66v-139h-94q-127 0 -170 49t-43 188v385q0 64 -16 85.5t-64 21.5h-25z " />
<glyph unicode="|" d="M260 -260v1694h154v-1694h-154z" />
<glyph unicode="}" horiz-adv-x="462" d="M39 -4h65q52 0 66 23t14 90v319q0 105 24.5 156.5t86.5 68.5q-62 18 -86.5 70t-24.5 158v319q0 68 -14 91.5t-66 23.5h-65v139h94q127 0 170 -49t43 -188v-388q0 -65 16 -85.5t64 -20.5h25v-137h-25q-48 0 -64 -21.5t-16 -85.5v-385q0 -139 -43 -188t-170 -49h-94v139z " />
<glyph unicode="~" d="M66 590v160q63 88 141 88q47 0 138.5 -44t133.5 -44q74 0 131 92v-162q-63 -88 -141 -88q-48 0 -139.5 44t-134.5 44q-75 0 -129 -90z" />
<glyph unicode="&#xa1;" horiz-adv-x="327" d="M70 944v230h188v-230h-188zM74 190l32 658h115l33 -658v-450h-180v450z" />
<glyph unicode="&#xa2;" d="M78 379v676q0 134 39.5 184t152.5 53v142h131v-142q113 -3 154 -53.5t41 -183.5v-211h-154v186q0 67 -14.5 90t-67.5 23h-36q-53 0 -67.5 -23t-14.5 -90v-627q0 -67 14.5 -89.5t67.5 -22.5h36q53 0 67.5 22.5t14.5 89.5v207h154v-231q0 -134 -41 -184.5t-154 -53.5v-141 h-131v141q-113 3 -152.5 53t-39.5 185z" />
<glyph unicode="&#xa3;" d="M55 0v143q79 70 115.5 141t42.5 165h-137v118h131q-9 39 -46 129.5t-63 193t-26 222.5v86q0 143 45.5 194.5t175.5 51.5h92q131 0 176 -51t45 -195v-348h-157v319q0 69 -15.5 93t-71.5 24h-36q-56 0 -71 -24t-15 -93v-59q0 -92 15.5 -178.5t35 -140.5t41.5 -118t30 -106 h211v-118h-206q-13 -174 -136 -291h363v-158h-539z" />
<glyph unicode="&#xa4;" d="M51 500l103 90q-39 53 -39 125q0 70 39 125l-103 92l70 69l90 -102q61 41 125 41q71 0 127 -43l94 104l68 -69l-105 -92q41 -53 41 -125q0 -67 -39 -125l103 -90l-68 -68l-92 100q-55 -40 -129 -40q-73 0 -125 40l-90 -100zM201 715q0 -57 39.5 -97t95.5 -40 q58 0 98.5 40t40.5 97q0 59 -40.5 100t-98.5 41q-56 0 -95.5 -41.5t-39.5 -99.5z" />
<glyph unicode="&#xa5;" d="M45 1434h168l72 -338q50 -250 63 -394q12 135 64 394l69 338h150l-201 -908h186v-65h-194v-135h194v-66h-194v-260h-168v260h-197v66h197v135h-197v65h187z" />
<glyph unicode="&#xa6;" d="M260 -260v774h154v-774h-154zM260 659v775h154v-775h-154z" />
<glyph unicode="&#xa7;" horiz-adv-x="645" d="M57 33v119h158v-105q0 -69 14.5 -93t67.5 -24h37q54 0 69 24t15 93v27q0 64 -28 101.5t-124 92.5q-123 71 -166 131.5t-43 155.5v176q0 75 25 118.5t82 61.5q-64 53 -85.5 106.5t-21.5 131.5v53q0 141 45 191.5t174 50.5h95q128 0 172.5 -50.5t44.5 -191.5v-119h-160v105 q0 70 -14 93.5t-68 23.5h-37q-53 0 -67.5 -24t-14.5 -93v-27q0 -64 27.5 -101.5t122.5 -92.5q123 -71 167 -131.5t44 -155.5v-176q0 -75 -26 -119.5t-85 -62.5q66 -52 87.5 -105.5t21.5 -130.5v-53q0 -141 -45 -191.5t-174 -50.5h-93q-128 0 -172.5 50.5t-44.5 191.5z M221 592q0 -61 22 -96.5t101 -85.5q51 0 65.5 21t14.5 73v139q0 61 -22.5 95.5t-102.5 86.5q-49 0 -63.5 -21.5t-14.5 -72.5v-139z" />
<glyph unicode="&#xa8;" horiz-adv-x="337" d="M-23 1229v155h146v-155h-146zM211 1229v155h147v-155h-147z" />
<glyph unicode="&#xa9;" horiz-adv-x="1079" d="M74 451v532q0 121 19 203t66 142.5t130 88t209 27.5h84q125 0 207.5 -27.5t129.5 -88t66 -142.5t19 -203v-532q0 -121 -19 -203t-66 -142.5t-129.5 -88t-207.5 -27.5h-84q-126 0 -209 27.5t-130 88t-66 142.5t-19 203zM182 451q0 -204 68 -283.5t250 -79.5h80 q182 0 248.5 79t66.5 284v532q0 205 -66.5 284t-248.5 79h-80q-182 0 -250 -79.5t-68 -283.5v-532zM348 414v608q0 98 33.5 133t124.5 35h57q93 0 126.5 -35t33.5 -133v-178h-109v155q0 50 -12 66t-51 16h-23q-39 0 -51 -16t-12 -66v-565q0 -50 12 -66t51 -16h23q39 0 51 16 t12 66v197h109v-217q0 -99 -33.5 -134.5t-126.5 -35.5h-57q-91 0 -124.5 35.5t-33.5 134.5z" />
<glyph unicode="&#xaa;" horiz-adv-x="503" d="M51 780v111q0 81 25.5 124.5t105.5 76.5q99 42 118 62t19 85v8q0 49 -10.5 65.5t-48.5 16.5h-27q-38 0 -48.5 -16.5t-10.5 -65.5v-80h-115v99q0 105 32.5 141.5t127.5 36.5h64q96 0 127.5 -36.5t31.5 -141.5v-490q0 -85 15 -135h-113q-13 19 -16 96q-22 -106 -129 -106 h-27q-68 0 -94.5 33t-26.5 116zM53 424v117h398v-117h-398zM174 825q0 -49 10.5 -66.5t46.5 -17.5h23q65 0 65 103v196q-27 -20 -65 -36q-53 -23 -66.5 -47t-13.5 -76v-56z" />
<glyph unicode="&#xab;" horiz-adv-x="643" d="M12 565l201 410h152l-193 -410l193 -409h-152zM287 565l192 410h152l-187 -410l187 -409h-152z" />
<glyph unicode="&#xac;" d="M66 643v148h544v-373h-143v225h-401z" />
<glyph unicode="&#xad;" horiz-adv-x="438" d="M41 487v125h356v-125h-356z" />
<glyph unicode="&#xae;" horiz-adv-x="1079" d="M74 451v532q0 121 19 203t66 142.5t130 88t209 27.5h84q125 0 207.5 -27.5t129.5 -88t66 -142.5t19 -203v-532q0 -121 -19 -203t-66 -142.5t-129.5 -88t-207.5 -27.5h-84q-126 0 -209 27.5t-130 88t-66 142.5t-19 203zM182 451q0 -204 68 -283.5t250 -79.5h80 q182 0 248.5 79t66.5 284v532q0 205 -66.5 284t-248.5 79h-80q-182 0 -250 -79.5t-68 -283.5v-532zM354 254v926h221q91 0 124.5 -35.5t33.5 -134.5v-150q0 -73 -17.5 -111t-58.5 -51q41 -12 58.5 -49t17.5 -108v-101q0 -110 23 -186h-123q-15 37 -15 166v141q0 49 -16 67.5 t-55 18.5h-76v-393h-117zM471 752h84q38 0 50.5 17t12.5 65v159q0 48 -12.5 65t-50.5 17h-84v-323z" />
<glyph unicode="&#xaf;" horiz-adv-x="337" d="M-23 1235v104h383v-104h-383z" />
<glyph unicode="&#xb0;" horiz-adv-x="495" d="M37 1198q0 95 58 154t153 59t153 -59t58 -154q0 -96 -58 -155.5t-153 -59.5t-153 59.5t-58 155.5zM147 1198q0 -47 28 -75.5t73 -28.5t71.5 28t26.5 76q0 47 -26.5 76t-71.5 29t-73 -29.5t-28 -75.5z" />
<glyph unicode="&#xb1;" d="M66 324v147h544v-147h-544zM66 745v150h200v215h142v-215h202v-150h-202v-215h-142v215h-200z" />
<glyph unicode="&#xb2;" horiz-adv-x="509" d="M47 543v145q0 100 37.5 165t108.5 122q75 64 108 116.5t33 129.5v14q0 55 -11 72.5t-55 17.5h-22q-44 0 -55 -17.5t-11 -72.5v-113h-119v140q0 106 34.5 144t131.5 38h68q96 0 131 -38.5t35 -143.5v-43q0 -45 -9 -84t-18.5 -64t-33 -55t-35 -42t-43 -40.5t-39.5 -36.5 q-57 -51 -83 -95t-26 -112v-28h281v-119h-408z" />
<glyph unicode="&#xb3;" horiz-adv-x="509" d="M55 715v88h119v-62q0 -53 11 -71.5t53 -18.5h24q44 0 55 17.5t11 72.5v111q0 55 -11 72.5t-55 17.5h-127v119h127q44 0 55 17.5t11 72.5v84q0 55 -11 72.5t-55 17.5h-22q-44 0 -55 -17.5t-11 -72.5v-51h-119v78q0 106 34.5 144t131.5 38h68q94 0 130 -38.5t36 -143.5v-84 q0 -84 -21.5 -124.5t-73.5 -52.5q52 -12 73.5 -52.5t21.5 -123.5v-110q0 -105 -36 -144t-130 -39h-68q-97 0 -131.5 38.5t-34.5 144.5z" />
<glyph unicode="&#xb4;" horiz-adv-x="337" d="M59 1188l105 235h149l-149 -235h-105z" />
<glyph unicode="&#xb5;" horiz-adv-x="671" d="M72 -260v1390h161v-882q0 -64 14 -86.5t64 -22.5h31q49 0 70.5 34t21.5 101v856h164v-940q0 -122 16 -190h-155q-14 32 -17 121q-29 -131 -170 -131h-39v-250h-161z" />
<glyph unicode="&#xb6;" horiz-adv-x="837" d="M35 680v487q0 156 48.5 211.5t190.5 55.5h482v-1633h-133v1502h-144v-1502h-133v613h-72q-142 0 -190.5 55t-48.5 211z" />
<glyph unicode="&#xb7;" horiz-adv-x="337" d="M74 594v246h188v-246h-188z" />
<glyph unicode="&#xb8;" horiz-adv-x="337" d="M16 -158h95q-2 -37 7 -51t44 -14q32 0 42.5 12t10.5 43q0 36 -18.5 51.5t-73.5 12.5v116h57v-78q76 0 109 -21.5t33 -72.5q0 -26 -4.5 -42t-19 -33.5t-48 -26t-86.5 -8.5q-93 0 -120.5 25t-27.5 87z" />
<glyph unicode="&#xb9;" horiz-adv-x="290" d="M82 543v827q24 0 46 21t22 43h59v-891h-127z" />
<glyph unicode="&#xba;" horiz-adv-x="499" d="M55 424v117h391v-117h-391zM55 811v455q0 105 31.5 141.5t126.5 36.5h76q94 0 125.5 -36.5t31.5 -141.5v-455q0 -106 -31.5 -143t-125.5 -37h-76q-94 0 -126 37.5t-32 142.5zM178 829q0 -50 11 -67t49 -17h26q38 0 49 17t11 67v418q0 48 -11 65t-49 17h-26q-38 0 -49 -17 t-11 -65v-418z" />
<glyph unicode="&#xbb;" horiz-adv-x="643" d="M12 156l187 409l-187 410h152l192 -410l-192 -409h-152zM279 156l192 409l-192 410h151l201 -410l-201 -409h-151z" />
<glyph unicode="&#xbc;" horiz-adv-x="884" d="M82 543v827q24 0 46 21t22 43h59v-891h-127zM137 0l430 1434h58l-428 -1434h-60zM412 162v102l247 627h132v-619h57v-110h-57v-162h-127v162h-252zM524 272h140v84q0 187 8 346q-60 -203 -115 -346z" />
<glyph unicode="&#xbd;" horiz-adv-x="950" d="M82 543v827q24 0 46 21t22 43h59v-891h-127zM137 0l430 1434h58l-428 -1434h-60zM487 0v145q0 100 37.5 165t108.5 122q75 64 108 116.5t33 129.5v14q0 55 -11 72.5t-54 17.5h-23q-43 0 -54 -17.5t-11 -72.5v-112h-119v139q0 106 34.5 144t131.5 38h67q96 0 131 -38.5 t35 -143.5v-43q0 -45 -9 -84t-18.5 -64t-33 -55t-35 -42t-43 -40.5t-39.5 -36.5q-57 -51 -83 -95t-26 -112v-28h281v-119h-408z" />
<glyph unicode="&#xbe;" horiz-adv-x="1069" d="M55 715v88h119v-62q0 -53 11 -71.5t53 -18.5h24q44 0 55 17.5t11 72.5v111q0 55 -11 72.5t-55 17.5h-127v119h127q44 0 55 17.5t11 72.5v84q0 55 -11 72.5t-55 17.5h-22q-44 0 -55 -17.5t-11 -72.5v-51h-119v78q0 106 34.5 144t131.5 38h68q94 0 130 -38.5t36 -143.5v-84 q0 -84 -21.5 -124.5t-73.5 -52.5q52 -12 73.5 -52.5t21.5 -123.5v-110q0 -105 -36 -144t-130 -39h-68q-97 0 -131.5 38.5t-34.5 144.5zM324 0l430 1434h57l-428 -1434h-59zM598 162v102l248 627h131v-619h57v-110h-57v-162h-127v162h-252zM711 272h139v84q0 187 8 346 q-60 -203 -115 -346z" />
<glyph unicode="&#xbf;" horiz-adv-x="622" d="M43 -23v82q0 78 12.5 140.5t33 104.5t45 77.5t48.5 68t44.5 68t33 86t12.5 113.5v67h146v-55q0 -106 -21.5 -183t-52 -124t-60.5 -92.5t-51.5 -115.5t-21.5 -165v-45q0 -69 15.5 -93t72.5 -24h35q57 0 71.5 23.5t14.5 93.5v246h158v-275q0 -143 -45.5 -194t-176.5 -51 h-90q-132 0 -177.5 51t-45.5 196zM254 893v281h184v-281h-184z" />
<glyph unicode="&#xc0;" horiz-adv-x="681" d="M23 0l194 1434h248l192 -1434h-180l-31 219h-231l-31 -219h-161zM168 1712h149l103 -235h-103zM238 387h186l-23 174q-42 329 -71 723q-30 -412 -70 -723z" />
<glyph unicode="&#xc1;" horiz-adv-x="681" d="M23 0l194 1434h248l192 -1434h-180l-31 219h-231l-31 -219h-161zM238 387h186l-23 174q-42 329 -71 723q-30 -412 -70 -723zM260 1477l105 235h149l-149 -235h-105z" />
<glyph unicode="&#xc2;" horiz-adv-x="681" d="M23 0l194 1434h248l192 -1434h-180l-31 219h-231l-31 -219h-161zM150 1477l131 235h120l134 -235h-105l-88 133l-88 -133h-104zM238 387h186l-23 174q-42 329 -71 723q-30 -412 -70 -723z" />
<glyph unicode="&#xc3;" horiz-adv-x="681" d="M23 0l194 1434h248l192 -1434h-180l-31 219h-231l-31 -219h-161zM143 1505q0 88 27.5 124t89.5 36q45 0 95 -27.5t69 -27.5q21 0 29 14t8 43h80q0 -88 -27.5 -124t-89.5 -36q-45 0 -95 28t-69 28q-21 0 -29 -13.5t-8 -44.5h-80zM238 387h186l-23 174q-42 329 -71 723 q-30 -412 -70 -723z" />
<glyph unicode="&#xc4;" horiz-adv-x="681" d="M23 0l194 1434h248l192 -1434h-180l-31 219h-231l-31 -219h-161zM150 1518v155h145v-155h-145zM238 387h186l-23 174q-42 329 -71 723q-30 -412 -70 -723zM383 1518v155h147v-155h-147z" />
<glyph unicode="&#xc5;" horiz-adv-x="681" d="M23 0l194 1434h248l192 -1434h-180l-31 219h-231l-31 -219h-161zM215 1608q0 53 36 87t89 34q55 0 91 -34t36 -87q0 -54 -36.5 -88.5t-90.5 -34.5q-53 0 -89 35t-36 88zM238 387h186l-23 174q-42 329 -71 723q-30 -412 -70 -723zM287 1608q0 -23 15.5 -38.5t37.5 -15.5 q23 0 38 15.5t15 38.5q0 22 -15 36.5t-38 14.5q-22 0 -37.5 -14.5t-15.5 -36.5z" />
<glyph unicode="&#xc6;" horiz-adv-x="905" d="M14 0l322 1434h528v-168h-268v-432h223v-168h-223v-498h268v-168h-448v219h-193l-47 -219h-162zM260 387h156v827q-51 -319 -111 -606z" />
<glyph unicode="&#xc7;" horiz-adv-x="712" d="M70 256v922q0 156 49 211t190 55h99q142 0 190.5 -55t48.5 -211v-269h-170v240q0 77 -16 102t-76 25h-43q-60 0 -76 -25t-16 -102v-864q0 -77 16 -102t76 -25h43q60 0 76 25t16 102v301h170v-330q0 -156 -48.5 -211t-190.5 -55h-37v-56q75 0 108 -21.5t33 -72.5 q0 -26 -4.5 -42t-19 -33.5t-48 -26t-86.5 -8.5q-49 0 -79 6.5t-44.5 22.5t-19 34t-4.5 49h94q-2 -37 7 -51t44 -14q32 0 43 12t11 43q0 35 -19 51t-74 13v94h-4q-141 0 -190 55t-49 211z" />
<glyph unicode="&#xc8;" horiz-adv-x="573" d="M82 0v1434h448v-168h-268v-432h223v-168h-223v-498h268v-168h-448zM135 1712h150l102 -235h-102z" />
<glyph unicode="&#xc9;" horiz-adv-x="573" d="M82 0v1434h448v-168h-268v-432h223v-168h-223v-498h268v-168h-448zM229 1477l105 235h149l-149 -235h-105z" />
<glyph unicode="&#xca;" horiz-adv-x="573" d="M82 0v1434h448v-168h-268v-432h223v-168h-223v-498h268v-168h-448zM115 1477l131 235h121l133 -235h-105l-88 133l-88 -133h-104z" />
<glyph unicode="&#xcb;" horiz-adv-x="573" d="M82 0v1434h448v-168h-268v-432h223v-168h-223v-498h268v-168h-448zM115 1518v155h145v-155h-145zM348 1518v155h148v-155h-148z" />
<glyph unicode="&#xcc;" horiz-adv-x="344" d="M-2 1712h149l103 -235h-103zM82 0v1434h180v-1434h-180z" />
<glyph unicode="&#xcd;" horiz-adv-x="344" d="M82 0v1434h180v-1434h-180zM90 1477l105 235h149l-149 -235h-105z" />
<glyph unicode="&#xce;" horiz-adv-x="344" d="M-20 1477l131 235h120l134 -235h-105l-88 133l-88 -133h-104zM82 0v1434h180v-1434h-180z" />
<glyph unicode="&#xcf;" horiz-adv-x="344" d="M-20 1518v155h145v-155h-145zM82 0v1434h180v-1434h-180zM213 1518v155h147v-155h-147z" />
<glyph unicode="&#xd0;" horiz-adv-x="739" d="M29 686v135h53v613h346q142 0 192 -55.5t50 -211.5v-901q0 -156 -50 -211t-192 -55h-346v686h-53zM262 168h135q60 0 76 25t16 102v844q0 77 -16 102t-76 25h-135v-445h119v-135h-119v-518z" />
<glyph unicode="&#xd1;" horiz-adv-x="751" d="M80 0v1434h227l170 -766q28 -128 47 -258q-1 25 -4.5 116t-3.5 144v764h158v-1434h-205l-193 829q-23 103 -45 258q5 -210 5 -262v-825h-156zM178 1505q0 88 27.5 124t89.5 36q45 0 95 -27.5t69 -27.5q21 0 29 14t8 43h79q0 -88 -27 -124t-89 -36q-45 0 -95 28t-69 28 q-21 0 -29 -13.5t-8 -44.5h-80z" />
<glyph unicode="&#xd2;" horiz-adv-x="727" d="M70 256v922q0 156 49 211t190 55h109q141 0 190 -55t49 -211v-922q0 -156 -49 -211t-190 -55h-109q-141 0 -190 55t-49 211zM190 1712h150l102 -235h-102zM250 285q0 -77 16 -102t76 -25h43q60 0 76 25t16 102v864q0 77 -16 102t-76 25h-43q-60 0 -76 -25t-16 -102v-864z " />
<glyph unicode="&#xd3;" horiz-adv-x="727" d="M70 256v922q0 156 49 211t190 55h109q141 0 190 -55t49 -211v-922q0 -156 -49 -211t-190 -55h-109q-141 0 -190 55t-49 211zM250 285q0 -77 16 -102t76 -25h43q60 0 76 25t16 102v864q0 77 -16 102t-76 25h-43q-60 0 -76 -25t-16 -102v-864zM283 1477l104 235h150 l-150 -235h-104z" />
<glyph unicode="&#xd4;" horiz-adv-x="727" d="M70 256v922q0 156 49 211t190 55h109q141 0 190 -55t49 -211v-922q0 -156 -49 -211t-190 -55h-109q-141 0 -190 55t-49 211zM170 1477l131 235h121l133 -235h-104l-89 133l-88 -133h-104zM250 285q0 -77 16 -102t76 -25h43q60 0 76 25t16 102v864q0 77 -16 102t-76 25 h-43q-60 0 -76 -25t-16 -102v-864z" />
<glyph unicode="&#xd5;" horiz-adv-x="727" d="M70 256v922q0 156 49 211t190 55h109q141 0 190 -55t49 -211v-922q0 -156 -49 -211t-190 -55h-109q-141 0 -190 55t-49 211zM164 1505q0 88 27.5 124t89.5 36q45 0 94.5 -27.5t68.5 -27.5q21 0 29 14t8 43h80q0 -88 -27.5 -124t-89.5 -36q-45 0 -94.5 28t-68.5 28 q-21 0 -29 -13.5t-8 -44.5h-80zM250 285q0 -77 16 -102t76 -25h43q60 0 76 25t16 102v864q0 77 -16 102t-76 25h-43q-60 0 -76 -25t-16 -102v-864z" />
<glyph unicode="&#xd6;" horiz-adv-x="727" d="M70 256v922q0 156 49 211t190 55h109q141 0 190 -55t49 -211v-922q0 -156 -49 -211t-190 -55h-109q-141 0 -190 55t-49 211zM170 1518v155h145v-155h-145zM250 285q0 -77 16 -102t76 -25h43q60 0 76 25t16 102v864q0 77 -16 102t-76 25h-43q-60 0 -76 -25t-16 -102v-864z M403 1518v155h148v-155h-148z" />
<glyph unicode="&#xd7;" d="M72 535l172 182l-172 182l92 98l174 -182l172 182l94 -96l-176 -184l176 -182l-94 -97l-172 183l-174 -183z" />
<glyph unicode="&#xd8;" horiz-adv-x="727" d="M70 -61l34 124q-34 52 -34 193v922q0 156 49 211t190 55h109q28 0 74 -4l16 55h149l-36 -125q36 -55 36 -192v-922q0 -156 -49 -211t-190 -55h-109q-30 0 -76 4l-16 -55h-147zM250 506l199 756q-17 14 -64 14h-43q-60 0 -76 -25t-16 -102v-643zM276 170q21 -12 66 -12h43 q60 0 76 25t16 102v641z" />
<glyph unicode="&#xd9;" horiz-adv-x="729" d="M78 256v1178h180v-1149q0 -77 15.5 -102t76.5 -25h43q60 0 76 25t16 102v1149h168v-1178q0 -157 -48 -211.5t-189 -54.5h-99q-142 0 -190.5 55t-48.5 211zM190 1712h150l102 -235h-102z" />
<glyph unicode="&#xda;" horiz-adv-x="729" d="M78 256v1178h180v-1149q0 -77 15.5 -102t76.5 -25h43q60 0 76 25t16 102v1149h168v-1178q0 -157 -48 -211.5t-189 -54.5h-99q-142 0 -190.5 55t-48.5 211zM285 1477l104 235h150l-150 -235h-104z" />
<glyph unicode="&#xdb;" horiz-adv-x="729" d="M78 256v1178h180v-1149q0 -77 15.5 -102t76.5 -25h43q60 0 76 25t16 102v1149h168v-1178q0 -157 -48 -211.5t-189 -54.5h-99q-142 0 -190.5 55t-48.5 211zM172 1477l131 235h121l133 -235h-104l-88 133l-89 -133h-104z" />
<glyph unicode="&#xdc;" horiz-adv-x="729" d="M78 256v1178h180v-1149q0 -77 15.5 -102t76.5 -25h43q60 0 76 25t16 102v1149h168v-1178q0 -157 -48 -211.5t-189 -54.5h-99q-142 0 -190.5 55t-48.5 211zM172 1518v155h145v-155h-145zM406 1518v155h147v-155h-147z" />
<glyph unicode="&#xdd;" horiz-adv-x="649" d="M10 1434h183l75 -338q53 -232 68 -394q20 189 67 394l76 338h160l-223 -951v-483h-180v483zM252 1477l104 235h150l-150 -235h-104z" />
<glyph unicode="&#xde;" horiz-adv-x="692" d="M82 0v1434h180v-123h156q142 0 190.5 -54.5t48.5 -209.5v-338q0 -156 -48.5 -211.5t-190.5 -55.5h-156v-442h-180zM262 610h125q60 0 75 24.5t15 100.5v281q0 78 -15 103.5t-75 25.5h-125v-535z" />
<glyph unicode="&#xdf;" horiz-adv-x="663" d="M74 0v1206q0 139 44 188.5t169 49.5h100q127 0 171 -49.5t44 -188.5v-92q0 -106 -26 -157t-91 -68q65 -15 91 -66.5t26 -156.5v-428q0 -139 -44 -188.5t-171 -49.5h-78v137h47q48 0 65 19.5t17 87.5v454q0 69 -14.5 92t-67.5 23h-47v152h47q53 0 67.5 23.5t14.5 90.5v121 q0 68 -14.5 91.5t-67.5 23.5h-39q-47 0 -63 -19.5t-16 -85.5v-1210h-164z" />
<glyph unicode="&#xe0;" horiz-adv-x="655" d="M57 184v185q0 115 35.5 174.5t143.5 103.5q50 21 73.5 31t49.5 25.5t34.5 26t17.5 31.5t10 42t1 57v19q0 67 -14.5 89.5t-67.5 22.5h-35q-52 0 -67 -23t-15 -89v-129h-151v153q0 139 43 188.5t168 49.5h90q125 0 169 -49.5t44 -188.5v-713q0 -122 14 -190h-154 q-15 35 -18 115q-32 -125 -168 -125h-41q-93 0 -127.5 42.5t-34.5 151.5zM156 1423h149l103 -235h-103zM221 248q0 -64 14 -86.5t64 -22.5h31q49 0 70.5 34t21.5 101v314q-49 -27 -88 -43q-72 -31 -92.5 -66t-20.5 -114v-117z" />
<glyph unicode="&#xe1;" horiz-adv-x="655" d="M57 184v185q0 115 35.5 174.5t143.5 103.5q50 21 73.5 31t49.5 25.5t34.5 26t17.5 31.5t10 42t1 57v19q0 67 -14.5 89.5t-67.5 22.5h-35q-52 0 -67 -23t-15 -89v-129h-151v153q0 139 43 188.5t168 49.5h90q125 0 169 -49.5t44 -188.5v-713q0 -122 14 -190h-154 q-15 35 -18 115q-32 -125 -168 -125h-41q-93 0 -127.5 42.5t-34.5 151.5zM221 248q0 -64 14 -86.5t64 -22.5h31q49 0 70.5 34t21.5 101v314q-49 -27 -88 -43q-72 -31 -92.5 -66t-20.5 -114v-117zM248 1188l104 235h150l-150 -235h-104z" />
<glyph unicode="&#xe2;" horiz-adv-x="655" d="M57 184v185q0 115 35.5 174.5t143.5 103.5q50 21 73.5 31t49.5 25.5t34.5 26t17.5 31.5t10 42t1 57v19q0 67 -14.5 89.5t-67.5 22.5h-35q-52 0 -67 -23t-15 -89v-129h-151v153q0 139 43 188.5t168 49.5h90q125 0 169 -49.5t44 -188.5v-713q0 -122 14 -190h-154 q-15 35 -18 115q-32 -125 -168 -125h-41q-93 0 -127.5 42.5t-34.5 151.5zM137 1188l131 235h121l133 -235h-104l-88 133l-88 -133h-105zM221 248q0 -64 14 -86.5t64 -22.5h31q49 0 70.5 34t21.5 101v314q-49 -27 -88 -43q-72 -31 -92.5 -66t-20.5 -114v-117z" />
<glyph unicode="&#xe3;" horiz-adv-x="655" d="M57 184v185q0 115 35.5 174.5t143.5 103.5q50 21 73.5 31t49.5 25.5t34.5 26t17.5 31.5t10 42t1 57v19q0 67 -14.5 89.5t-67.5 22.5h-35q-52 0 -67 -23t-15 -89v-129h-151v153q0 139 43 188.5t168 49.5h90q125 0 169 -49.5t44 -188.5v-713q0 -122 14 -190h-154 q-15 35 -18 115q-32 -125 -168 -125h-41q-93 0 -127.5 42.5t-34.5 151.5zM131 1217q0 88 27 123.5t90 35.5q45 0 95 -27.5t69 -27.5q21 0 29 14t8 43h79q0 -88 -27 -123.5t-89 -35.5q-45 0 -95 27.5t-69 27.5q-21 0 -29 -13.5t-8 -43.5h-80zM221 248q0 -64 14 -86.5 t64 -22.5h31q49 0 70.5 34t21.5 101v314q-49 -27 -88 -43q-72 -31 -92.5 -66t-20.5 -114v-117z" />
<glyph unicode="&#xe4;" horiz-adv-x="655" d="M57 184v185q0 115 35.5 174.5t143.5 103.5q50 21 73.5 31t49.5 25.5t34.5 26t17.5 31.5t10 42t1 57v19q0 67 -14.5 89.5t-67.5 22.5h-35q-52 0 -67 -23t-15 -89v-129h-151v153q0 139 43 188.5t168 49.5h90q125 0 169 -49.5t44 -188.5v-713q0 -122 14 -190h-154 q-15 35 -18 115q-32 -125 -168 -125h-41q-93 0 -127.5 42.5t-34.5 151.5zM137 1229v155h146v-155h-146zM221 248q0 -64 14 -86.5t64 -22.5h31q49 0 70.5 34t21.5 101v314q-49 -27 -88 -43q-72 -31 -92.5 -66t-20.5 -114v-117zM371 1229v155h147v-155h-147z" />
<glyph unicode="&#xe5;" horiz-adv-x="655" d="M57 184v185q0 115 35.5 174.5t143.5 103.5q50 21 73.5 31t49.5 25.5t34.5 26t17.5 31.5t10 42t1 57v19q0 67 -14.5 89.5t-67.5 22.5h-35q-52 0 -67 -23t-15 -89v-129h-151v153q0 139 43 188.5t168 49.5h90q125 0 169 -49.5t44 -188.5v-713q0 -122 14 -190h-154 q-15 35 -18 115q-32 -125 -168 -125h-41q-93 0 -127.5 42.5t-34.5 151.5zM203 1319q0 53 36 87t89 34q55 0 91 -34t36 -87q0 -54 -36.5 -88.5t-90.5 -34.5q-53 0 -89 35t-36 88zM221 248q0 -64 14 -86.5t64 -22.5h31q49 0 70.5 34t21.5 101v314q-49 -27 -88 -43 q-72 -31 -92.5 -66t-20.5 -114v-117zM274 1319q0 -23 16 -38t38 -15q23 0 38 15t15 38q0 22 -15 36.5t-38 14.5q-22 0 -38 -15t-16 -36z" />
<glyph unicode="&#xe6;" horiz-adv-x="1001" d="M57 184v185q0 115 35.5 174.5t143.5 103.5q50 21 73.5 31t49.5 25.5t34.5 26t17.5 31.5t10 42t1 57v19q0 67 -14.5 89.5t-67.5 22.5h-35q-52 0 -67 -23t-15 -89v-129h-151v153q0 139 43 188.5t168 49.5h34q86 0 128 -22t57 -77q17 55 59 77t129 22h35q126 0 169.5 -49.5 t43.5 -188.5v-387h-352v-264q0 -67 14.5 -90t67.5 -23h37q51 0 65 23t14 90v133h154v-158q0 -139 -43 -188t-170 -49h-90q-100 0 -146 28t-59 101q-32 -129 -170 -129h-41q-93 0 -127.5 42.5t-34.5 151.5zM221 248q0 -64 14 -86.5t64 -22.5h31q49 0 70.5 34t21.5 101v314 q-49 -27 -88 -43q-72 -31 -92.5 -66t-20.5 -114v-117zM586 659h198v220q0 67 -14 89.5t-65 22.5h-37q-53 0 -67.5 -22.5t-14.5 -89.5v-220z" />
<glyph unicode="&#xe7;" horiz-adv-x="643" d="M63 227v676q0 139 44.5 188.5t171.5 49.5h90q125 0 169 -49.5t44 -188.5v-211h-154v187q0 67 -14.5 89.5t-67.5 22.5h-37q-53 0 -67.5 -22.5t-14.5 -89.5v-627q0 -67 14.5 -90t67.5 -23h37q53 0 67.5 23t14.5 90v207h154v-232q0 -139 -44 -188t-169 -49h-37v-56 q75 0 108 -21.5t33 -72.5q0 -26 -4.5 -42t-19 -33.5t-48 -26t-86.5 -8.5q-49 0 -79 6.5t-44.5 22.5t-19 34t-4.5 49h94q-2 -37 7 -51t44 -14q32 0 43 12t11 43q0 35 -19 51t-74 13v94q-125 1 -168 49.5t-43 187.5z" />
<glyph unicode="&#xe8;" horiz-adv-x="645" d="M63 227v676q0 139 44.5 188.5t171.5 49.5h90q125 0 169 -49.5t44 -188.5v-387h-355v-264q0 -67 14.5 -90t67.5 -23h37q53 0 67.5 23t14.5 90v133h154v-158q0 -139 -44 -188t-169 -49h-90q-127 0 -171.5 49t-44.5 188zM156 1423h149l103 -235h-103zM227 659h201v220 q0 67 -14.5 89.5t-67.5 22.5h-37q-53 0 -67.5 -22.5t-14.5 -89.5v-220z" />
<glyph unicode="&#xe9;" horiz-adv-x="645" d="M63 227v676q0 139 44.5 188.5t171.5 49.5h90q125 0 169 -49.5t44 -188.5v-387h-355v-264q0 -67 14.5 -90t67.5 -23h37q53 0 67.5 23t14.5 90v133h154v-158q0 -139 -44 -188t-169 -49h-90q-127 0 -171.5 49t-44.5 188zM227 659h201v220q0 67 -14.5 89.5t-67.5 22.5h-37 q-53 0 -67.5 -22.5t-14.5 -89.5v-220zM248 1188l104 235h150l-150 -235h-104z" />
<glyph unicode="&#xea;" horiz-adv-x="645" d="M63 227v676q0 139 44.5 188.5t171.5 49.5h90q125 0 169 -49.5t44 -188.5v-387h-355v-264q0 -67 14.5 -90t67.5 -23h37q53 0 67.5 23t14.5 90v133h154v-158q0 -139 -44 -188t-169 -49h-90q-127 0 -171.5 49t-44.5 188zM135 1188l131 235h121l133 -235h-104l-88 133 l-88 -133h-105zM227 659h201v220q0 67 -14.5 89.5t-67.5 22.5h-37q-53 0 -67.5 -22.5t-14.5 -89.5v-220z" />
<glyph unicode="&#xeb;" horiz-adv-x="645" d="M63 227v676q0 139 44.5 188.5t171.5 49.5h90q125 0 169 -49.5t44 -188.5v-387h-355v-264q0 -67 14.5 -90t67.5 -23h37q53 0 67.5 23t14.5 90v133h154v-158q0 -139 -44 -188t-169 -49h-90q-127 0 -171.5 49t-44.5 188zM135 1229v155h146v-155h-146zM227 659h201v220 q0 67 -14.5 89.5t-67.5 22.5h-37q-53 0 -67.5 -22.5t-14.5 -89.5v-220zM369 1229v155h147v-155h-147z" />
<glyph unicode="&#xec;" horiz-adv-x="311" d="M-16 1423h149l103 -235h-103zM74 0v1130h164v-1130h-164z" />
<glyph unicode="&#xed;" horiz-adv-x="311" d="M74 0v1130h164v-1130h-164zM76 1188l104 235h150l-150 -235h-104z" />
<glyph unicode="&#xee;" horiz-adv-x="311" d="M-35 1188l131 235h121l133 -235h-104l-88 133l-88 -133h-105zM74 0v1130h164v-1130h-164z" />
<glyph unicode="&#xef;" horiz-adv-x="311" d="M-35 1229v155h146v-155h-146zM74 0v1130h164v-1130h-164zM199 1229v155h147v-155h-147z" />
<glyph unicode="&#xf0;" d="M63 227v719q0 109 34.5 152t127.5 43h41q124 0 164 -109v152q0 60 -10 82l-88 -80l-29 31l90 79q-18 9 -49 9h-59v129h88q94 0 145 -29l33 29h55l-59 -54q45 -53 45 -190v-963q0 -139 -44 -188t-169 -49h-100q-127 0 -171.5 49t-44.5 188zM227 252q0 -67 14.5 -90 t67.5 -23h37q53 0 67.5 23t14.5 90v604q0 67 -21.5 101t-70.5 34h-31q-50 0 -64 -22t-14 -86v-631z" />
<glyph unicode="&#xf1;" horiz-adv-x="671" d="M74 0v1130h153v-129q29 140 172 140h41q93 0 127.5 -43t34.5 -152v-946h-164v883q0 64 -14 86t-64 22h-30q-49 0 -70.5 -34t-21.5 -101v-856h-164zM139 1217q0 88 27 123.5t90 35.5q45 0 95 -27.5t69 -27.5q21 0 29 14t8 43h80q0 -88 -27 -123.5t-90 -35.5 q-45 0 -95 27.5t-69 27.5q-21 0 -29 -13.5t-8 -43.5h-80z" />
<glyph unicode="&#xf2;" horiz-adv-x="655" d="M63 227v676q0 139 44.5 188.5t171.5 49.5h100q125 0 169 -49.5t44 -188.5v-676q0 -139 -44 -188t-169 -49h-100q-127 0 -171.5 49t-44.5 188zM154 1423h149l103 -235h-103zM227 252q0 -67 14.5 -90t67.5 -23h37q53 0 67.5 23t14.5 90v627q0 67 -14.5 89.5t-67.5 22.5h-37 q-53 0 -67.5 -22.5t-14.5 -89.5v-627z" />
<glyph unicode="&#xf3;" horiz-adv-x="655" d="M63 227v676q0 139 44.5 188.5t171.5 49.5h100q125 0 169 -49.5t44 -188.5v-676q0 -139 -44 -188t-169 -49h-100q-127 0 -171.5 49t-44.5 188zM227 252q0 -67 14.5 -90t67.5 -23h37q53 0 67.5 23t14.5 90v627q0 67 -14.5 89.5t-67.5 22.5h-37q-53 0 -67.5 -22.5 t-14.5 -89.5v-627zM248 1188l104 235h150l-150 -235h-104z" />
<glyph unicode="&#xf4;" horiz-adv-x="655" d="M63 227v676q0 139 44.5 188.5t171.5 49.5h100q125 0 169 -49.5t44 -188.5v-676q0 -139 -44 -188t-169 -49h-100q-127 0 -171.5 49t-44.5 188zM135 1188l131 235h121l133 -235h-104l-88 133l-88 -133h-105zM227 252q0 -67 14.5 -90t67.5 -23h37q53 0 67.5 23t14.5 90v627 q0 67 -14.5 89.5t-67.5 22.5h-37q-53 0 -67.5 -22.5t-14.5 -89.5v-627z" />
<glyph unicode="&#xf5;" horiz-adv-x="655" d="M63 227v676q0 139 44.5 188.5t171.5 49.5h100q125 0 169 -49.5t44 -188.5v-676q0 -139 -44 -188t-169 -49h-100q-127 0 -171.5 49t-44.5 188zM129 1217q0 88 27 123.5t90 35.5q45 0 95 -27.5t69 -27.5q21 0 28.5 13.5t7.5 43.5h80q0 -88 -27 -123.5t-89 -35.5 q-45 0 -95 27.5t-69 27.5q-21 0 -29 -13.5t-8 -43.5h-80zM227 252q0 -67 14.5 -90t67.5 -23h37q53 0 67.5 23t14.5 90v627q0 67 -14.5 89.5t-67.5 22.5h-37q-53 0 -67.5 -22.5t-14.5 -89.5v-627z" />
<glyph unicode="&#xf6;" horiz-adv-x="655" d="M63 227v676q0 139 44.5 188.5t171.5 49.5h100q125 0 169 -49.5t44 -188.5v-676q0 -139 -44 -188t-169 -49h-100q-127 0 -171.5 49t-44.5 188zM135 1229v155h146v-155h-146zM227 252q0 -67 14.5 -90t67.5 -23h37q53 0 67.5 23t14.5 90v627q0 67 -14.5 89.5t-67.5 22.5h-37 q-53 0 -67.5 -22.5t-14.5 -89.5v-627zM369 1229v155h147v-155h-147z" />
<glyph unicode="&#xf7;" d="M66 643v148h544v-148h-544zM256 391v158h162v-158h-162zM256 883v159h162v-159h-162z" />
<glyph unicode="&#xf8;" horiz-adv-x="655" d="M63 -61l35 110q-35 48 -35 178v676q0 139 44.5 188.5t171.5 49.5h100q21 0 57 -4l21 65h135l-39 -119q39 -50 39 -180v-676q0 -139 -44 -188t-169 -49h-100q-26 0 -62 4l-18 -55h-136zM227 395l166 588q-13 8 -47 8h-37q-53 0 -67.5 -22.5t-14.5 -89.5v-484zM258 147 q16 -8 51 -8h37q53 0 67.5 23t14.5 90v485z" />
<glyph unicode="&#xf9;" horiz-adv-x="671" d="M72 184v946h161v-882q0 -64 14 -86.5t64 -22.5h31q49 0 70.5 34t21.5 101v856h164v-940q0 -122 16 -190h-155q-14 32 -17 121q-29 -131 -170 -131h-41q-92 0 -125.5 42.5t-33.5 151.5zM162 1423h149l103 -235h-103z" />
<glyph unicode="&#xfa;" horiz-adv-x="671" d="M72 184v946h161v-882q0 -64 14 -86.5t64 -22.5h31q49 0 70.5 34t21.5 101v856h164v-940q0 -122 16 -190h-155q-14 32 -17 121q-29 -131 -170 -131h-41q-92 0 -125.5 42.5t-33.5 151.5zM254 1188l104 235h150l-150 -235h-104z" />
<glyph unicode="&#xfb;" horiz-adv-x="671" d="M72 184v946h161v-882q0 -64 14 -86.5t64 -22.5h31q49 0 70.5 34t21.5 101v856h164v-940q0 -122 16 -190h-155q-14 32 -17 121q-29 -131 -170 -131h-41q-92 0 -125.5 42.5t-33.5 151.5zM143 1188l131 235h121l133 -235h-104l-88 133l-88 -133h-105z" />
<glyph unicode="&#xfc;" horiz-adv-x="671" d="M72 184v946h161v-882q0 -64 14 -86.5t64 -22.5h31q49 0 70.5 34t21.5 101v856h164v-940q0 -122 16 -190h-155q-14 32 -17 121q-29 -131 -170 -131h-41q-92 0 -125.5 42.5t-33.5 151.5zM143 1229v155h146v-155h-146zM377 1229v155h147v-155h-147z" />
<glyph unicode="&#xfd;" horiz-adv-x="606" d="M12 1130h168l70 -428q48 -288 61 -526q18 247 64 526l71 428h148l-207 -1230q-12 -79 -57.5 -119.5t-132.5 -40.5h-150v125h84q65 0 68 59l4 64zM229 1188l105 235h149l-149 -235h-105z" />
<glyph unicode="&#xfe;" horiz-adv-x="665" d="M74 -260v1694h164v-398q37 105 161 105h41q93 0 127.5 -43t34.5 -152v-762q0 -109 -34.5 -151.5t-127.5 -42.5h-41q-125 0 -161 102v-352h-164zM238 274q0 -67 21.5 -101t70.5 -34h30q50 0 64 22.5t14 86.5v635q0 64 -14 86t-64 22h-30q-49 0 -70.5 -34t-21.5 -101v-582z " />
<glyph unicode="&#xff;" horiz-adv-x="606" d="M12 1130h168l70 -428q48 -288 61 -526q18 247 64 526l71 428h148l-207 -1230q-12 -79 -57.5 -119.5t-132.5 -40.5h-150v125h84q65 0 68 59l4 64zM117 1229v155h145v-155h-145zM350 1229v155h148v-155h-148z" />
<glyph unicode="&#x152;" horiz-adv-x="944" d="M70 266v901q0 156 49.5 211.5t191.5 55.5h590v-168h-268v-432h225v-168h-225v-498h268v-168h-590q-142 0 -191.5 55t-49.5 211zM250 295q0 -77 16 -102t76 -25h111v1098h-111q-60 0 -76 -25t-16 -102v-844z" />
<glyph unicode="&#x153;" horiz-adv-x="1007" d="M63 227v676q0 139 44.5 188.5t171.5 49.5h43q87 0 130 -23.5t56 -81.5q17 58 59.5 81.5t130.5 23.5h33q126 0 169.5 -49.5t43.5 -188.5v-387h-352v-264q0 -67 14.5 -90t67.5 -23h37q52 0 66 23t14 90v133h153v-158q0 -139 -43 -188t-168 -49h-35q-88 0 -130.5 23 t-59.5 81q-13 -58 -55.5 -81t-130.5 -23h-43q-127 0 -171.5 49t-44.5 188zM227 252q0 -67 14.5 -90t67.5 -23h37q53 0 67.5 23t14.5 90v627q0 67 -14.5 89.5t-67.5 22.5h-37q-53 0 -67.5 -22.5t-14.5 -89.5v-627zM592 659h199v220q0 66 -14.5 89t-65.5 23h-37 q-53 0 -67.5 -22.5t-14.5 -89.5v-220z" />
<glyph unicode="&#x178;" horiz-adv-x="649" d="M10 1434h183l75 -338q53 -232 68 -394q20 189 67 394l76 338h160l-223 -951v-483h-180v483zM139 1518v155h146v-155h-146zM373 1518v155h147v-155h-147z" />
<glyph unicode="&#x2c6;" horiz-adv-x="337" d="M-23 1188l132 235h120l133 -235h-104l-88 133l-88 -133h-105z" />
<glyph unicode="&#x2dc;" horiz-adv-x="337" d="M-29 1217q0 88 27 123.5t90 35.5q45 0 95 -27.5t69 -27.5q21 0 29 14t8 43h80q0 -88 -27 -123.5t-90 -35.5q-45 0 -95 27.5t-69 27.5q-21 0 -29 -13.5t-8 -43.5h-80z" />
<glyph unicode="&#x2000;" horiz-adv-x="864" />
<glyph unicode="&#x2001;" horiz-adv-x="1729" />
<glyph unicode="&#x2002;" horiz-adv-x="864" />
<glyph unicode="&#x2003;" horiz-adv-x="1729" />
<glyph unicode="&#x2004;" horiz-adv-x="576" />
<glyph unicode="&#x2005;" horiz-adv-x="432" />
<glyph unicode="&#x2006;" horiz-adv-x="288" />
<glyph unicode="&#x2007;" horiz-adv-x="288" />
<glyph unicode="&#x2008;" horiz-adv-x="216" />
<glyph unicode="&#x2009;" horiz-adv-x="345" />
<glyph unicode="&#x200a;" horiz-adv-x="96" />
<glyph unicode="&#x2010;" horiz-adv-x="438" d="M41 487v125h356v-125h-356z" />
<glyph unicode="&#x2011;" horiz-adv-x="438" d="M41 487v125h356v-125h-356z" />
<glyph unicode="&#x2012;" horiz-adv-x="438" d="M41 487v125h356v-125h-356z" />
<glyph unicode="&#x2013;" horiz-adv-x="1024" d="M0 487v125h1024v-125h-1024z" />
<glyph unicode="&#x2014;" horiz-adv-x="2048" d="M0 487v125h2048v-125h-2048z" />
<glyph unicode="&#x2018;" horiz-adv-x="337" d="M74 1014v246l159 174l15 -11l-105 -163h119v-246h-188z" />
<glyph unicode="&#x2019;" horiz-adv-x="337" d="M74 1188v246h188v-246l-160 -174l-14 10l105 164h-119z" />
<glyph unicode="&#x201a;" horiz-adv-x="337" d="M74 0v246h188v-246l-160 -174l-14 10l105 164h-119z" />
<glyph unicode="&#x201c;" horiz-adv-x="569" d="M55 1014v246l160 174l14 -11l-104 -163h119v-246h-189zM326 1014v246l159 174l15 -11l-105 -163h119v-246h-188z" />
<glyph unicode="&#x201d;" horiz-adv-x="569" d="M55 1188v246h189v-246l-160 -174l-14 10l104 164h-119zM324 1188v246h188v-246l-160 -174l-14 10l104 164h-118z" />
<glyph unicode="&#x201e;" horiz-adv-x="569" d="M55 0v246h189v-246l-160 -174l-14 10l104 164h-119zM324 0v246h188v-246l-160 -174l-14 10l104 164h-118z" />
<glyph unicode="&#x2022;" horiz-adv-x="577" d="M70 717q0 99 60.5 164t156.5 65q97 0 159 -65t62 -164q0 -96 -62 -160.5t-159 -64.5q-96 0 -156.5 64.5t-60.5 160.5z" />
<glyph unicode="&#x2026;" horiz-adv-x="837" d="M55 0v246h189v-246h-189zM324 0v246h188v-246h-188zM594 0v246h188v-246h-188z" />
<glyph unicode="&#x202f;" horiz-adv-x="345" />
<glyph unicode="&#x2039;" horiz-adv-x="374" d="M12 565l201 410h149l-188 -410l188 -409h-149z" />
<glyph unicode="&#x203a;" horiz-adv-x="374" d="M12 156l189 409l-189 410h150l200 -410l-200 -409h-150z" />
<glyph unicode="&#x205f;" horiz-adv-x="432" />
<glyph unicode="&#x20ac;" d="M14 623v67h64v129h-64v66h64v313q0 143 45.5 194.5t175.5 51.5h90q131 0 177 -51.5t46 -194.5v-174h-157v145q0 69 -15.5 93t-72.5 24h-35q-57 0 -71.5 -23.5t-14.5 -93.5v-284h366v-66h-366v-129h366v-67h-366v-359q0 -70 14.5 -93.5t71.5 -23.5h35q57 0 72.5 24 t15.5 93v219h157v-247q0 -143 -46 -194.5t-177 -51.5h-90q-130 0 -175.5 51.5t-45.5 194.5v387h-64z" />
<glyph unicode="&#x2122;" horiz-adv-x="999" d="M8 1331v103h332v-103h-104v-745h-123v745h-105zM397 586v848h178l76 -457q16 -110 21 -189q8 132 18 189l76 457h184v-848h-123v454q0 111 7 230q-18 -122 -37 -230l-80 -454h-101l-84 454q-30 178 -38 238q8 -144 8 -238v-454h-105z" />
<glyph unicode="&#x25fc;" horiz-adv-x="1126" d="M0 0v1126h1126v-1126h-1126z" />
</font>
</defs>
</svg>
